<svg width="27" height="26" viewBox="0 0 27 26" fill="none" xmlns="http://www.w3.org/2000/svg">
<path d="M26.0985 9.1767H18.588L15.87 11.948C15.5366 12.2894 15.1401 12.5601 14.7034 12.7444C14.2667 12.9287 13.7986 13.0229 13.326 13.0216C12.363 13.0216 11.46 12.6392 10.779 11.9464C10.4442 11.6066 10.1787 11.2026 9.99767 10.7577C9.81669 10.3128 9.72385 9.83577 9.7245 9.35411C9.7245 9.29447 9.7395 9.23635 9.741 9.1767H0.9C0.661305 9.1767 0.432387 9.27338 0.263604 9.44547C0.0948212 9.61756 0 9.85096 0 10.0943V13.7649H27V10.0943C27 9.9737 26.9767 9.85425 26.9314 9.74282C26.886 9.63139 26.8196 9.53016 26.7359 9.44493C26.6521 9.3597 26.5527 9.29214 26.4434 9.24611C26.334 9.20009 26.2168 9.1765 26.0985 9.1767ZM14.652 10.7046L22.2345 2.97349C22.3184 2.88847 22.385 2.78743 22.4305 2.67614C22.4761 2.56484 22.4997 2.44549 22.5 2.3249C22.5002 2.20431 22.4772 2.08484 22.4322 1.97334C22.3871 1.86183 22.321 1.76046 22.2375 1.67504L20.8575 0.268001C20.688 0.0963429 20.4589 0 20.22 0C19.9811 0 19.752 0.0963429 19.5825 0.268001L12 8.0006C11.6483 8.35917 11.4508 8.84549 11.4508 9.35258C11.4508 9.85967 11.6483 10.346 12 10.7046C12.3517 11.0631 12.8287 11.2646 13.326 11.2646C13.8233 11.2646 14.3003 11.0631 14.652 10.7046ZM4.2345 24.8851C4.38 25.4984 5.007 26 5.625 26H21.375C21.993 26 22.62 25.4984 22.7655 24.8851L25.05 15.2943H1.95L4.2345 24.8851Z" fill="black"/>
</svg>
