<svg width="255" height="30" viewBox="0 0 255 30" fill="none" xmlns="http://www.w3.org/2000/svg">
<rect width="255" height="30" fill="white"/>
<path d="M18.7963 10.2727V19H17.7394V10.2727H18.7963ZM21.7845 15.0625V19H20.7789V12.4545H21.7504V13.4773H21.8357C21.9891 13.1449 22.222 12.8778 22.5345 12.6761C22.847 12.4716 23.2504 12.3693 23.7448 12.3693C24.1879 12.3693 24.5757 12.4602 24.9081 12.642C25.2405 12.821 25.499 13.0938 25.6837 13.4602C25.8683 13.8239 25.9607 14.2841 25.9607 14.8409V19H24.955V14.9091C24.955 14.3949 24.8215 13.9943 24.5544 13.7074C24.2874 13.4176 23.9209 13.2727 23.455 13.2727C23.134 13.2727 22.847 13.3423 22.5942 13.4815C22.3442 13.6207 22.1468 13.8239 22.0019 14.0909C21.857 14.358 21.7845 14.6818 21.7845 15.0625ZM30.27 19.1364C29.7245 19.1364 29.243 18.9986 28.8254 18.723C28.4078 18.4446 28.0811 18.0526 27.8453 17.5469C27.6095 17.0384 27.4916 16.4375 27.4916 15.7443C27.4916 15.0568 27.6095 14.4602 27.8453 13.9545C28.0811 13.4489 28.4092 13.0582 28.8296 12.7827C29.2501 12.5071 29.7359 12.3693 30.287 12.3693C30.7132 12.3693 31.0498 12.4403 31.297 12.5824C31.547 12.7216 31.7373 12.8807 31.868 13.0597C32.0015 13.2358 32.1052 13.3807 32.1791 13.4943H32.2643V10.2727H33.27V19H32.2984V17.9943H32.1791C32.1052 18.1136 32.0001 18.2642 31.8637 18.446C31.7274 18.625 31.5328 18.7855 31.2799 18.9276C31.0271 19.0668 30.6904 19.1364 30.27 19.1364ZM30.4063 18.233C30.8097 18.233 31.1507 18.1278 31.4291 17.9176C31.7075 17.7045 31.9191 17.4105 32.064 17.0355C32.2089 16.6577 32.2813 16.2216 32.2813 15.7273C32.2813 15.2386 32.2103 14.8111 32.0683 14.4446C31.9262 14.0753 31.716 13.7884 31.4376 13.5838C31.1592 13.3764 30.8154 13.2727 30.4063 13.2727C29.9802 13.2727 29.6251 13.3821 29.341 13.6009C29.0597 13.8168 28.8481 14.1108 28.7061 14.483C28.5669 14.8523 28.4972 15.267 28.4972 15.7273C28.4972 16.1932 28.5683 16.6165 28.7103 16.9972C28.8552 17.375 29.0683 17.6761 29.3495 17.9006C29.6336 18.1222 29.9859 18.233 30.4063 18.233ZM38.0981 12.4545V13.3068H34.7061V12.4545H38.0981ZM35.6947 10.8864H36.7004V17.125C36.7004 17.4091 36.7416 17.6222 36.824 17.7642C36.9092 17.9034 37.0171 17.9972 37.1478 18.0455C37.2813 18.0909 37.422 18.1136 37.5697 18.1136C37.6805 18.1136 37.7714 18.108 37.8424 18.0966C37.9134 18.0824 37.9703 18.071 38.0129 18.0625L38.2174 18.9659C38.1492 18.9915 38.0541 19.017 37.9319 19.0426C37.8097 19.071 37.6549 19.0852 37.4674 19.0852C37.1833 19.0852 36.9049 19.0241 36.6322 18.902C36.3623 18.7798 36.1379 18.5938 35.9589 18.3438C35.7828 18.0938 35.6947 17.7784 35.6947 17.3977V10.8864ZM41.537 19.1534C41.1222 19.1534 40.7458 19.0753 40.4078 18.919C40.0697 18.7599 39.8012 18.5312 39.6024 18.233C39.4035 17.9318 39.3041 17.5682 39.3041 17.142C39.3041 16.767 39.3779 16.4631 39.5257 16.2301C39.6734 15.9943 39.8708 15.8097 40.118 15.6761C40.3651 15.5426 40.6379 15.4432 40.9362 15.3778C41.2373 15.3097 41.5399 15.2557 41.8438 15.2159C42.2416 15.1648 42.564 15.1264 42.8112 15.1009C43.0612 15.0724 43.243 15.0256 43.3566 14.9602C43.4731 14.8949 43.5313 14.7812 43.5313 14.6193V14.5852C43.5313 14.1648 43.4163 13.8381 43.1862 13.6051C42.9589 13.3722 42.6137 13.2557 42.1507 13.2557C41.6705 13.2557 41.2941 13.3608 41.0214 13.571C40.7487 13.7812 40.5569 14.0057 40.4461 14.2443L39.4916 13.9034C39.662 13.5057 39.8893 13.196 40.1734 12.9744C40.4603 12.75 40.7728 12.5937 41.1109 12.5057C41.4518 12.4148 41.787 12.3693 42.1166 12.3693C42.3268 12.3693 42.5683 12.3949 42.841 12.446C43.1166 12.4943 43.3822 12.5952 43.6379 12.7486C43.8964 12.902 44.1109 13.1335 44.2813 13.4432C44.4518 13.7528 44.537 14.1676 44.537 14.6875V19H43.5313V18.1136H43.4802C43.412 18.2557 43.2984 18.4077 43.1393 18.5696C42.9802 18.7315 42.7686 18.8693 42.5044 18.983C42.2401 19.0966 41.9177 19.1534 41.537 19.1534ZM41.6904 18.25C42.0882 18.25 42.4234 18.1719 42.6961 18.0156C42.9717 17.8594 43.1791 17.6577 43.3183 17.4105C43.4603 17.1634 43.5313 16.9034 43.5313 16.6307V15.7102C43.4887 15.7614 43.395 15.8082 43.2501 15.8509C43.108 15.8906 42.9433 15.9261 42.7558 15.9574C42.5711 15.9858 42.3907 16.0114 42.2146 16.0341C42.0413 16.054 41.9007 16.071 41.7927 16.0852C41.5313 16.1193 41.287 16.1747 41.0597 16.2514C40.8353 16.3253 40.6535 16.4375 40.5143 16.5881C40.3779 16.7358 40.3097 16.9375 40.3097 17.1932C40.3097 17.5426 40.439 17.8068 40.6975 17.9858C40.9589 18.1619 41.2899 18.25 41.6904 18.25ZM51.009 13.9205L50.1056 14.1761C50.0487 14.0256 49.9649 13.8793 49.8541 13.7372C49.7462 13.5923 49.5985 13.473 49.411 13.3793C49.2235 13.2855 48.9834 13.2386 48.6908 13.2386C48.2902 13.2386 47.9564 13.331 47.6894 13.5156C47.4252 13.6974 47.2931 13.929 47.2931 14.2102C47.2931 14.4602 47.384 14.6577 47.5658 14.8026C47.7476 14.9474 48.0317 15.0682 48.4181 15.1648L49.3896 15.4034C49.9749 15.5455 50.411 15.7628 50.6979 16.0554C50.9848 16.3452 51.1283 16.7187 51.1283 17.1761C51.1283 17.5511 51.0203 17.8864 50.8044 18.1818C50.5914 18.4773 50.2931 18.7102 49.9095 18.8807C49.526 19.0511 49.08 19.1364 48.5715 19.1364C47.9039 19.1364 47.3513 18.9915 46.9138 18.7017C46.4763 18.4119 46.1993 17.9886 46.0828 17.4318L47.0374 17.1932C47.1283 17.5455 47.3002 17.8097 47.553 17.9858C47.8087 18.1619 48.1425 18.25 48.5544 18.25C49.0232 18.25 49.3953 18.1506 49.6709 17.9517C49.9493 17.75 50.0885 17.5085 50.0885 17.2273C50.0885 17 50.009 16.8097 49.8499 16.6562C49.6908 16.5 49.4465 16.3835 49.1169 16.3068L48.026 16.0511C47.4266 15.9091 46.9862 15.6889 46.705 15.3906C46.4266 15.0895 46.2874 14.7131 46.2874 14.2614C46.2874 13.892 46.3911 13.5653 46.5985 13.2812C46.8087 12.9972 47.0942 12.7741 47.455 12.6122C47.8186 12.4503 48.2306 12.3693 48.6908 12.3693C49.3385 12.3693 49.847 12.5114 50.2164 12.7955C50.5885 13.0795 50.8527 13.4545 51.009 13.9205ZM55.4887 12.4545V13.3068H52.0967V12.4545H55.4887ZM53.0853 10.8864H54.091V17.125C54.091 17.4091 54.1322 17.6222 54.2146 17.7642C54.2998 17.9034 54.4078 17.9972 54.5384 18.0455C54.672 18.0909 54.8126 18.1136 54.9603 18.1136C55.0711 18.1136 55.162 18.108 55.233 18.0966C55.3041 18.0824 55.3609 18.071 55.4035 18.0625L55.608 18.9659C55.5399 18.9915 55.4447 19.017 55.3225 19.0426C55.2004 19.071 55.0455 19.0852 54.858 19.0852C54.574 19.0852 54.2955 19.0241 54.0228 18.902C53.7529 18.7798 53.5285 18.5938 53.3495 18.3438C53.1734 18.0938 53.0853 17.7784 53.0853 17.3977V10.8864ZM62.8481 19.1364C62.3026 19.1364 61.8211 18.9986 61.4035 18.723C60.9859 18.4446 60.6592 18.0526 60.4234 17.5469C60.1876 17.0384 60.0697 16.4375 60.0697 15.7443C60.0697 15.0568 60.1876 14.4602 60.4234 13.9545C60.6592 13.4489 60.9873 13.0582 61.4078 12.7827C61.8282 12.5071 62.314 12.3693 62.8651 12.3693C63.2913 12.3693 63.6279 12.4403 63.8751 12.5824C64.1251 12.7216 64.3154 12.8807 64.4461 13.0597C64.5796 13.2358 64.6833 13.3807 64.7572 13.4943H64.8424V10.2727H65.8481V19H64.8765V17.9943H64.7572C64.6833 18.1136 64.5782 18.2642 64.4419 18.446C64.3055 18.625 64.1109 18.7855 63.858 18.9276C63.6052 19.0668 63.2686 19.1364 62.8481 19.1364ZM62.9845 18.233C63.3879 18.233 63.7288 18.1278 64.0072 17.9176C64.2856 17.7045 64.4972 17.4105 64.6421 17.0355C64.787 16.6577 64.8595 16.2216 64.8595 15.7273C64.8595 15.2386 64.7884 14.8111 64.6464 14.4446C64.5044 14.0753 64.2941 13.7884 64.0157 13.5838C63.7373 13.3764 63.3936 13.2727 62.9845 13.2727C62.5583 13.2727 62.2032 13.3821 61.9191 13.6009C61.6379 13.8168 61.4262 14.1108 61.2842 14.483C61.145 14.8523 61.0754 15.267 61.0754 15.7273C61.0754 16.1932 61.1464 16.6165 61.2884 16.9972C61.4333 17.375 61.6464 17.6761 61.9276 17.9006C62.2117 18.1222 62.564 18.233 62.9845 18.233ZM67.8296 19V12.4545H68.8353V19H67.8296ZM68.341 11.3636C68.145 11.3636 67.9759 11.2969 67.8339 11.1634C67.6947 11.0298 67.6251 10.8693 67.6251 10.6818C67.6251 10.4943 67.6947 10.3338 67.8339 10.2003C67.9759 10.0668 68.145 10 68.341 10C68.537 10 68.7046 10.0668 68.8438 10.2003C68.9859 10.3338 69.0569 10.4943 69.0569 10.6818C69.0569 10.8693 68.9859 11.0298 68.8438 11.1634C68.7046 11.2969 68.537 11.3636 68.341 11.3636ZM71.683 15.0625V19H70.6773V12.4545H71.6489V13.4773H71.7341C71.8875 13.1449 72.1205 12.8778 72.433 12.6761C72.7455 12.4716 73.1489 12.3693 73.6432 12.3693C74.0864 12.3693 74.4742 12.4602 74.8066 12.642C75.1389 12.821 75.3975 13.0938 75.5821 13.4602C75.7668 13.8239 75.8591 14.2841 75.8591 14.8409V19H74.8534V14.9091C74.8534 14.3949 74.7199 13.9943 74.4529 13.7074C74.1858 13.4176 73.8193 13.2727 73.3534 13.2727C73.0324 13.2727 72.7455 13.3423 72.4926 13.4815C72.2426 13.6207 72.0452 13.8239 71.9003 14.0909C71.7554 14.358 71.683 14.6818 71.683 15.0625ZM83.8161 19.1364C83.1855 19.1364 82.6414 18.9972 82.184 18.7188C81.7295 18.4375 81.3786 18.0455 81.1315 17.5426C80.8872 17.0369 80.765 16.4489 80.765 15.7784C80.765 15.108 80.8872 14.517 81.1315 14.0057C81.3786 13.4915 81.7224 13.0909 82.1627 12.804C82.6059 12.5142 83.123 12.3693 83.7139 12.3693C84.0548 12.3693 84.3914 12.4261 84.7238 12.5398C85.0562 12.6534 85.3588 12.8381 85.6315 13.0938C85.9042 13.3466 86.1215 13.6818 86.2835 14.0994C86.4454 14.517 86.5264 15.0312 86.5264 15.642V16.0682H81.4809V15.1989H85.5036C85.5036 14.8295 85.4298 14.5 85.282 14.2102C85.1372 13.9205 84.9298 13.6918 84.6599 13.5241C84.3928 13.3565 84.0775 13.2727 83.7139 13.2727C83.3133 13.2727 82.9667 13.3722 82.6741 13.571C82.3843 13.767 82.1613 14.0227 82.0051 14.3381C81.8488 14.6534 81.7707 14.9915 81.7707 15.3523V15.9318C81.7707 16.4261 81.8559 16.8452 82.0264 17.1889C82.1997 17.5298 82.4397 17.7898 82.7465 17.9688C83.0534 18.1449 83.4099 18.233 83.8161 18.233C84.0803 18.233 84.319 18.196 84.532 18.1222C84.748 18.0455 84.934 17.9318 85.0903 17.7812C85.2465 17.6278 85.3673 17.4375 85.4525 17.2102L86.4241 17.483C86.3218 17.8125 86.1499 18.1023 85.9085 18.3523C85.667 18.5994 85.3687 18.7926 85.0136 18.9318C84.6585 19.0682 84.2593 19.1364 83.8161 19.1364ZM91.8062 14.7898V15.7273H87.988V14.7898H91.8062ZM93.5757 19V12.4545H94.5473V13.4773H94.6325C94.7689 13.1278 94.9891 12.8565 95.2931 12.6634C95.597 12.4673 95.9621 12.3693 96.3882 12.3693C96.82 12.3693 97.1794 12.4673 97.4664 12.6634C97.7561 12.8565 97.982 13.1278 98.1439 13.4773H98.2121C98.3797 13.1392 98.6311 12.8707 98.9664 12.6719C99.3016 12.4702 99.7036 12.3693 100.172 12.3693C100.758 12.3693 101.236 12.5526 101.608 12.919C101.981 13.2827 102.167 13.8494 102.167 14.6193V19H101.161V14.6193C101.161 14.1364 101.029 13.7912 100.765 13.5838C100.5 13.3764 100.189 13.2727 99.8314 13.2727C99.3712 13.2727 99.0146 13.4119 98.7618 13.6903C98.509 13.9659 98.3825 14.3153 98.3825 14.7386V19H97.3598V14.517C97.3598 14.1449 97.2391 13.8452 96.9976 13.6179C96.7561 13.3878 96.445 13.2727 96.0644 13.2727C95.803 13.2727 95.5587 13.3423 95.3314 13.4815C95.107 13.6207 94.9252 13.8139 94.786 14.0611C94.6496 14.3054 94.5814 14.5881 94.5814 14.9091V19H93.5757ZM105.932 19.1534C105.517 19.1534 105.14 19.0753 104.802 18.919C104.464 18.7599 104.196 18.5312 103.997 18.233C103.798 17.9318 103.699 17.5682 103.699 17.142C103.699 16.767 103.772 16.4631 103.92 16.2301C104.068 15.9943 104.265 15.8097 104.513 15.6761C104.76 15.5426 105.032 15.4432 105.331 15.3778C105.632 15.3097 105.934 15.2557 106.238 15.2159C106.636 15.1648 106.959 15.1264 107.206 15.1009C107.456 15.0724 107.638 15.0256 107.751 14.9602C107.868 14.8949 107.926 14.7812 107.926 14.6193V14.5852C107.926 14.1648 107.811 13.8381 107.581 13.6051C107.353 13.3722 107.008 13.2557 106.545 13.2557C106.065 13.2557 105.689 13.3608 105.416 13.571C105.143 13.7812 104.951 14.0057 104.841 14.2443L103.886 13.9034C104.057 13.5057 104.284 13.196 104.568 12.9744C104.855 12.75 105.167 12.5937 105.505 12.5057C105.846 12.4148 106.182 12.3693 106.511 12.3693C106.721 12.3693 106.963 12.3949 107.236 12.446C107.511 12.4943 107.777 12.5952 108.032 12.7486C108.291 12.902 108.505 13.1335 108.676 13.4432C108.846 13.7528 108.932 14.1676 108.932 14.6875V19H107.926V18.1136H107.875C107.807 18.2557 107.693 18.4077 107.534 18.5696C107.375 18.7315 107.163 18.8693 106.899 18.983C106.635 19.0966 106.312 19.1534 105.932 19.1534ZM106.085 18.25C106.483 18.25 106.818 18.1719 107.091 18.0156C107.366 17.8594 107.574 17.6577 107.713 17.4105C107.855 17.1634 107.926 16.9034 107.926 16.6307V15.7102C107.883 15.7614 107.79 15.8082 107.645 15.8509C107.503 15.8906 107.338 15.9261 107.15 15.9574C106.966 15.9858 106.785 16.0114 106.609 16.0341C106.436 16.054 106.295 16.071 106.187 16.0852C105.926 16.1193 105.682 16.1747 105.454 16.2514C105.23 16.3253 105.048 16.4375 104.909 16.5881C104.772 16.7358 104.704 16.9375 104.704 17.1932C104.704 17.5426 104.834 17.8068 105.092 17.9858C105.353 18.1619 105.684 18.25 106.085 18.25ZM110.767 19V12.4545H111.773V19H110.767ZM111.278 11.3636C111.082 11.3636 110.913 11.2969 110.771 11.1634C110.632 11.0298 110.563 10.8693 110.563 10.6818C110.563 10.4943 110.632 10.3338 110.771 10.2003C110.913 10.0668 111.082 10 111.278 10C111.475 10 111.642 10.0668 111.781 10.2003C111.923 10.3338 111.994 10.4943 111.994 10.6818C111.994 10.8693 111.923 11.0298 111.781 11.1634C111.642 11.2969 111.475 11.3636 111.278 11.3636ZM114.62 10.2727V19H113.615V10.2727H114.62Z" fill="#8D8D8D"/>
</svg>
