<svg width="15" height="16" viewBox="0 0 15 16" fill="none" xmlns="http://www.w3.org/2000/svg">
<path d="M4.35 0H10.65C13.05 0 15 1.95833 15 4.36859V10.6955C15 11.8541 14.5417 12.9653 13.7259 13.7846C12.9101 14.6038 11.8037 15.0641 10.65 15.0641H4.35C1.95 15.0641 0 13.1058 0 10.6955V4.36859C0 3.20997 0.458302 2.0988 1.27409 1.27953C2.08987 0.460261 3.19631 0 4.35 0ZM4.2 1.50641C3.48392 1.50641 2.79716 1.79209 2.29081 2.3006C1.78446 2.80911 1.5 3.4988 1.5 4.21795V10.8462C1.5 12.345 2.7075 13.5577 4.2 13.5577H10.8C11.5161 13.5577 12.2028 13.272 12.7092 12.7635C13.2155 12.255 13.5 11.5653 13.5 10.8462V4.21795C13.5 2.71907 12.2925 1.50641 10.8 1.50641H4.2ZM11.4375 2.63622C11.6861 2.63622 11.9246 2.73541 12.1004 2.91198C12.2762 3.08855 12.375 3.32802 12.375 3.57772C12.375 3.82743 12.2762 4.0669 12.1004 4.24347C11.9246 4.42004 11.6861 4.51923 11.4375 4.51923C11.1889 4.51923 10.9504 4.42004 10.7746 4.24347C10.5988 4.0669 10.5 3.82743 10.5 3.57772C10.5 3.32802 10.5988 3.08855 10.7746 2.91198C10.9504 2.73541 11.1889 2.63622 11.4375 2.63622ZM7.5 3.76603C8.49456 3.76603 9.44839 4.1628 10.1517 4.86907C10.8549 5.57534 11.25 6.53324 11.25 7.53205C11.25 8.53086 10.8549 9.48877 10.1517 10.195C9.44839 10.9013 8.49456 11.2981 7.5 11.2981C6.50544 11.2981 5.55161 10.9013 4.84835 10.195C4.14509 9.48877 3.75 8.53086 3.75 7.53205C3.75 6.53324 4.14509 5.57534 4.84835 4.86907C5.55161 4.1628 6.50544 3.76603 7.5 3.76603ZM7.5 5.27244C6.90326 5.27244 6.33097 5.5105 5.90901 5.93426C5.48705 6.35802 5.25 6.93276 5.25 7.53205C5.25 8.13134 5.48705 8.70608 5.90901 9.12984C6.33097 9.5536 6.90326 9.79167 7.5 9.79167C8.09674 9.79167 8.66903 9.5536 9.09099 9.12984C9.51295 8.70608 9.75 8.13134 9.75 7.53205C9.75 6.93276 9.51295 6.35802 9.09099 5.93426C8.66903 5.5105 8.09674 5.27244 7.5 5.27244Z" fill="#FFC706"/>
</svg>
