<svg width="14" height="17" viewBox="0 0 14 17" fill="none" xmlns="http://www.w3.org/2000/svg">
<path d="M6.66667 8.33333C7.125 8.33333 7.5175 8.17 7.84417 7.84333C8.17083 7.51666 8.33389 7.12444 8.33333 6.66667C8.33333 6.20833 8.17 5.81583 7.84333 5.48917C7.51667 5.1625 7.12445 4.99944 6.66667 5C6.20833 5 5.81583 5.16333 5.48917 5.49C5.1625 5.81667 4.99944 6.20889 5 6.66667C5 7.125 5.16333 7.5175 5.49 7.84417C5.81667 8.17083 6.20889 8.33389 6.66667 8.33333ZM6.66667 16.6667C4.43056 14.7639 2.76056 12.9967 1.65667 11.365C0.552778 9.73333 0.000555556 8.22278 0 6.83333C0 4.75 0.670278 3.09028 2.01083 1.85417C3.35139 0.618055 4.90333 0 6.66667 0C8.43056 0 9.98278 0.618055 11.3233 1.85417C12.6639 3.09028 13.3339 4.75 13.3333 6.83333C13.3333 8.22222 12.7811 9.73278 11.6767 11.365C10.5722 12.9972 8.90222 14.7644 6.66667 16.6667Z" fill="white"/>
</svg>
