<svg width="16" height="15" viewBox="0 0 16 15" fill="none" xmlns="http://www.w3.org/2000/svg">
<path d="M1.2085 15C0.958496 15 0.750163 14.9167 0.583496 14.75C0.416829 14.5833 0.333496 14.375 0.333496 14.125V10.75C0.333496 10.5556 0.395996 10.3853 0.520996 10.2392C0.645996 10.0931 0.805718 9.99944 1.00016 9.95833L3.87516 9.375C4.06961 9.34722 4.26766 9.36472 4.46933 9.4275C4.671 9.49028 4.83405 9.58389 4.9585 9.70833L6.91683 11.6667C7.97238 11.0278 8.93766 10.2708 9.81266 9.39583C10.6877 8.52083 11.4168 7.58333 12.0002 6.58333L10.0002 4.54167C9.87516 4.41667 9.79516 4.27417 9.76016 4.11417C9.72516 3.95417 9.72183 3.77722 9.75016 3.58333L10.2918 0.666667C10.3196 0.472222 10.4099 0.3125 10.5627 0.1875C10.7154 0.0624999 10.8891 0 11.0835 0H14.4585C14.7085 0 14.9168 0.0833333 15.0835 0.25C15.2502 0.416667 15.3335 0.625 15.3335 0.875C15.3335 2.66667 14.9341 4.41333 14.1352 6.115C13.3363 7.81667 12.2807 9.32361 10.9685 10.6358C9.65627 11.9481 8.14933 13.0036 6.44766 13.8025C4.746 14.6014 2.99961 15.0006 1.2085 15Z" fill="white"/>
</svg>
