<svg width="214" height="30" viewBox="0 0 214 30" fill="none" xmlns="http://www.w3.org/2000/svg">
<rect width="214" height="30" fill="white"/>
<path d="M19.8295 13.4545C19.7784 13.0227 19.571 12.6875 19.2074 12.4489C18.8438 12.2102 18.3977 12.0909 17.8693 12.0909C17.483 12.0909 17.1449 12.1534 16.8551 12.2784C16.5682 12.4034 16.3438 12.5753 16.1818 12.794C16.0227 13.0128 15.9432 13.2614 15.9432 13.5398C15.9432 13.7727 15.9986 13.973 16.1094 14.1406C16.223 14.3054 16.3679 14.4432 16.544 14.554C16.7202 14.6619 16.9048 14.7514 17.098 14.8224C17.2912 14.8906 17.4688 14.946 17.6307 14.9886L18.517 15.2273C18.7443 15.2869 18.9972 15.3693 19.2756 15.4744C19.5568 15.5795 19.8253 15.723 20.081 15.9048C20.3395 16.0838 20.5526 16.3139 20.7202 16.5952C20.8878 16.8764 20.9716 17.2216 20.9716 17.6307C20.9716 18.1023 20.848 18.5284 20.6009 18.9091C20.3565 19.2898 19.9986 19.5923 19.527 19.8168C19.0582 20.0412 18.4886 20.1534 17.8182 20.1534C17.1932 20.1534 16.652 20.0526 16.1946 19.8509C15.7401 19.6491 15.3821 19.3679 15.1207 19.0071C14.8622 18.6463 14.7159 18.2273 14.6818 17.75H15.7727C15.8011 18.0795 15.9119 18.3523 16.1051 18.5682C16.3011 18.7812 16.5483 18.9403 16.8466 19.0455C17.1477 19.1477 17.4716 19.1989 17.8182 19.1989C18.2216 19.1989 18.5838 19.1335 18.9048 19.0028C19.2259 18.8693 19.4801 18.6847 19.6676 18.4489C19.8551 18.2102 19.9489 17.9318 19.9489 17.6136C19.9489 17.3239 19.8679 17.0881 19.706 16.9062C19.544 16.7244 19.331 16.5767 19.0668 16.4631C18.8026 16.3494 18.517 16.25 18.2102 16.1648L17.1364 15.858C16.4545 15.6619 15.9148 15.3821 15.517 15.0185C15.1193 14.6548 14.9205 14.179 14.9205 13.5909C14.9205 13.1023 15.0526 12.6761 15.3168 12.3125C15.5838 11.946 15.9418 11.6619 16.3906 11.4602C16.8423 11.2557 17.3466 11.1534 17.9034 11.1534C18.4659 11.1534 18.9659 11.2543 19.4034 11.456C19.8409 11.6548 20.1875 11.9276 20.4432 12.2741C20.7017 12.6207 20.8381 13.0142 20.8523 13.4545H19.8295ZM23.2717 20.358L22.6239 19.9148L27.1921 13.1477L27.8398 13.5909L23.2717 20.358ZM25.2319 20.1364C24.641 20.1364 24.1225 19.9957 23.6765 19.7145C23.2333 19.4332 22.8867 19.0398 22.6367 18.5341C22.3896 18.0284 22.266 17.4375 22.266 16.7614C22.266 16.0795 22.3896 15.4844 22.6367 14.9759C22.8867 14.4673 23.2333 14.0724 23.6765 13.7912C24.1225 13.5099 24.641 13.3693 25.2319 13.3693C25.8228 13.3693 26.3398 13.5099 26.783 13.7912C27.229 14.0724 27.5756 14.4673 27.8228 14.9759C28.0728 15.4844 28.1978 16.0795 28.1978 16.7614C28.1978 17.4375 28.0728 18.0284 27.8228 18.5341C27.5756 19.0398 27.229 19.4332 26.783 19.7145C26.3398 19.9957 25.8228 20.1364 25.2319 20.1364ZM25.2319 19.233C25.6808 19.233 26.0501 19.1179 26.3398 18.8878C26.6296 18.6577 26.8441 18.3551 26.9833 17.9801C27.1225 17.6051 27.1921 17.1989 27.1921 16.7614C27.1921 16.3239 27.1225 15.9162 26.9833 15.5384C26.8441 15.1605 26.6296 14.8551 26.3398 14.6222C26.0501 14.3892 25.6808 14.2727 25.2319 14.2727C24.783 14.2727 24.4137 14.3892 24.1239 14.6222C23.8342 14.8551 23.6197 15.1605 23.4805 15.5384C23.3413 15.9162 23.2717 16.3239 23.2717 16.7614C23.2717 17.1989 23.3413 17.6051 23.4805 17.9801C23.6197 18.3551 23.8342 18.6577 24.1239 18.8878C24.4137 19.1179 24.783 19.233 25.2319 19.233ZM32.375 22.5909C31.8892 22.5909 31.4716 22.5284 31.1222 22.4034C30.7727 22.2812 30.4815 22.1193 30.2486 21.9176C30.0185 21.7188 29.8352 21.5057 29.6989 21.2784L30.5 20.7159C30.5909 20.8352 30.706 20.9716 30.8452 21.125C30.9844 21.2812 31.1747 21.4162 31.4162 21.5298C31.6605 21.6463 31.9801 21.7045 32.375 21.7045C32.9034 21.7045 33.3395 21.5767 33.6832 21.321C34.027 21.0653 34.1989 20.6648 34.1989 20.1193V18.7898H34.1136C34.0398 18.9091 33.9347 19.0568 33.7983 19.233C33.6648 19.4062 33.4716 19.5611 33.2188 19.6974C32.9688 19.831 32.6307 19.8977 32.2045 19.8977C31.6761 19.8977 31.2017 19.7727 30.7812 19.5227C30.3636 19.2727 30.0327 18.9091 29.7884 18.4318C29.5469 17.9545 29.4261 17.375 29.4261 16.6932C29.4261 16.0227 29.544 15.4389 29.7798 14.9418C30.0156 14.4418 30.3438 14.0554 30.7642 13.7827C31.1847 13.5071 31.6705 13.3693 32.2216 13.3693C32.6477 13.3693 32.9858 13.4403 33.2358 13.5824C33.4886 13.7216 33.6818 13.8807 33.8153 14.0597C33.9517 14.2358 34.0568 14.3807 34.1307 14.4943H34.233V13.4545H35.2045V20.1875C35.2045 20.75 35.0767 21.2074 34.821 21.5597C34.5682 21.9148 34.2273 22.1747 33.7983 22.3395C33.3722 22.5071 32.8977 22.5909 32.375 22.5909ZM32.3409 18.9943C32.7443 18.9943 33.0852 18.902 33.3636 18.7173C33.642 18.5327 33.8537 18.267 33.9986 17.9205C34.1435 17.5739 34.2159 17.1591 34.2159 16.6761C34.2159 16.2045 34.1449 15.7884 34.0028 15.4276C33.8608 15.0668 33.6506 14.7841 33.3722 14.5795C33.0938 14.375 32.75 14.2727 32.3409 14.2727C31.9148 14.2727 31.5597 14.3807 31.2756 14.5966C30.9943 14.8125 30.7827 15.1023 30.6406 15.4659C30.5014 15.8295 30.4318 16.233 30.4318 16.6761C30.4318 17.1307 30.5028 17.5327 30.6449 17.8821C30.7898 18.2287 31.0028 18.5014 31.2841 18.7003C31.5682 18.8963 31.9205 18.9943 32.3409 18.9943ZM45.7727 13.4545L43.3523 20H42.3295L39.9091 13.4545H41L42.8068 18.6705H42.875L44.6818 13.4545H45.7727ZM48.8271 20.1534C48.4123 20.1534 48.0359 20.0753 47.6978 19.919C47.3597 19.7599 47.0913 19.5312 46.8924 19.233C46.6935 18.9318 46.5941 18.5682 46.5941 18.142C46.5941 17.767 46.668 17.4631 46.8157 17.2301C46.9634 16.9943 47.1609 16.8097 47.408 16.6761C47.6552 16.5426 47.9279 16.4432 48.2262 16.3778C48.5273 16.3097 48.8299 16.2557 49.1339 16.2159C49.5316 16.1648 49.854 16.1264 50.1012 16.1009C50.3512 16.0724 50.533 16.0256 50.6467 15.9602C50.7631 15.8949 50.8214 15.7812 50.8214 15.6193V15.5852C50.8214 15.1648 50.7063 14.8381 50.4762 14.6051C50.2489 14.3722 49.9038 14.2557 49.4407 14.2557C48.9606 14.2557 48.5842 14.3608 48.3114 14.571C48.0387 14.7812 47.8469 15.0057 47.7362 15.2443L46.7816 14.9034C46.9521 14.5057 47.1793 14.196 47.4634 13.9744C47.7504 13.75 48.0629 13.5937 48.4009 13.5057C48.7418 13.4148 49.0771 13.3693 49.4066 13.3693C49.6168 13.3693 49.8583 13.3949 50.131 13.446C50.4066 13.4943 50.6722 13.5952 50.9279 13.7486C51.1864 13.902 51.4009 14.1335 51.5714 14.4432C51.7418 14.7528 51.8271 15.1676 51.8271 15.6875V20H50.8214V19.1136H50.7702C50.7021 19.2557 50.5884 19.4077 50.4293 19.5696C50.2702 19.7315 50.0586 19.8693 49.7944 19.983C49.5302 20.0966 49.2077 20.1534 48.8271 20.1534ZM48.9805 19.25C49.3782 19.25 49.7134 19.1719 49.9862 19.0156C50.2617 18.8594 50.4691 18.6577 50.6083 18.4105C50.7504 18.1634 50.8214 17.9034 50.8214 17.6307V16.7102C50.7788 16.7614 50.685 16.8082 50.5401 16.8509C50.3981 16.8906 50.2333 16.9261 50.0458 16.9574C49.8612 16.9858 49.6808 17.0114 49.5046 17.0341C49.3313 17.054 49.1907 17.071 49.0827 17.0852C48.8214 17.1193 48.5771 17.1747 48.3498 17.2514C48.1254 17.3253 47.9435 17.4375 47.8043 17.5881C47.668 17.7358 47.5998 17.9375 47.5998 18.1932C47.5998 18.5426 47.729 18.8068 47.9876 18.9858C48.2489 19.1619 48.5799 19.25 48.9805 19.25ZM53.6626 20V13.4545H54.6342V14.4432H54.7024C54.8217 14.1193 55.0376 13.8565 55.3501 13.6548C55.6626 13.4531 56.0149 13.3523 56.407 13.3523C56.4808 13.3523 56.5732 13.3537 56.6839 13.3565C56.7947 13.3594 56.8786 13.3636 56.9354 13.3693V14.392C56.9013 14.3835 56.8232 14.3707 56.701 14.3537C56.5817 14.3338 56.4553 14.3239 56.3217 14.3239C56.0036 14.3239 55.7195 14.3906 55.4695 14.5241C55.2223 14.6548 55.0263 14.8366 54.8814 15.0696C54.7393 15.2997 54.6683 15.5625 54.6683 15.858V20H53.6626ZM60.6726 20.1364C60.0419 20.1364 59.4979 19.9972 59.0405 19.7188C58.5859 19.4375 58.2351 19.0455 57.9879 18.5426C57.7436 18.0369 57.6214 17.4489 57.6214 16.7784C57.6214 16.108 57.7436 15.517 57.9879 15.0057C58.2351 14.4915 58.5788 14.0909 59.0192 13.804C59.4624 13.5142 59.9794 13.3693 60.5703 13.3693C60.9112 13.3693 61.2479 13.4261 61.5803 13.5398C61.9126 13.6534 62.2152 13.8381 62.4879 14.0938C62.7607 14.3466 62.978 14.6818 63.1399 15.0994C63.3018 15.517 63.3828 16.0312 63.3828 16.642V17.0682H58.3374V16.1989H62.3601C62.3601 15.8295 62.2862 15.5 62.1385 15.2102C61.9936 14.9205 61.7862 14.6918 61.5163 14.5241C61.2493 14.3565 60.9339 14.2727 60.5703 14.2727C60.1697 14.2727 59.8232 14.3722 59.5305 14.571C59.2408 14.767 59.0178 15.0227 58.8615 15.3381C58.7053 15.6534 58.6271 15.9915 58.6271 16.3523V16.9318C58.6271 17.4261 58.7124 17.8452 58.8828 18.1889C59.0561 18.5298 59.2962 18.7898 59.603 18.9688C59.9098 19.1449 60.2663 19.233 60.6726 19.233C60.9368 19.233 61.1754 19.196 61.3885 19.1222C61.6044 19.0455 61.7905 18.9318 61.9467 18.7812C62.103 18.6278 62.2237 18.4375 62.3089 18.2102L63.2805 18.483C63.1783 18.8125 63.0064 19.1023 62.7649 19.3523C62.5234 19.5994 62.2251 19.7926 61.87 19.9318C61.5149 20.0682 61.1158 20.1364 60.6726 20.1364ZM64.9126 20V13.4545H65.8842V14.4432H65.9524C66.0717 14.1193 66.2876 13.8565 66.6001 13.6548C66.9126 13.4531 67.2649 13.3523 67.657 13.3523C67.7308 13.3523 67.8232 13.3537 67.9339 13.3565C68.0447 13.3594 68.1286 13.3636 68.1854 13.3693V14.392C68.1513 14.3835 68.0732 14.3707 67.951 14.3537C67.8317 14.3338 67.7053 14.3239 67.5717 14.3239C67.2536 14.3239 66.9695 14.3906 66.7195 14.5241C66.4723 14.6548 66.2763 14.8366 66.1314 15.0696C65.9893 15.2997 65.9183 15.5625 65.9183 15.858V20H64.9126ZM69.3604 20.0682C69.1502 20.0682 68.9698 19.9929 68.8192 19.8423C68.6687 19.6918 68.5934 19.5114 68.5934 19.3011C68.5934 19.0909 68.6687 18.9105 68.8192 18.7599C68.9698 18.6094 69.1502 18.5341 69.3604 18.5341C69.5707 18.5341 69.7511 18.6094 69.9016 18.7599C70.0522 18.9105 70.1275 19.0909 70.1275 19.3011C70.1275 19.4403 70.092 19.5682 70.021 19.6847C69.9528 19.8011 69.8604 19.8949 69.744 19.9659C69.6303 20.0341 69.5025 20.0682 69.3604 20.0682ZM72.6651 20.0682C72.4549 20.0682 72.2745 19.9929 72.1239 19.8423C71.9734 19.6918 71.8981 19.5114 71.8981 19.3011C71.8981 19.0909 71.9734 18.9105 72.1239 18.7599C72.2745 18.6094 72.4549 18.5341 72.6651 18.5341C72.8754 18.5341 73.0558 18.6094 73.2063 18.7599C73.3569 18.9105 73.4322 19.0909 73.4322 19.3011C73.4322 19.4403 73.3967 19.5682 73.3256 19.6847C73.2575 19.8011 73.1651 19.8949 73.0487 19.9659C72.935 20.0341 72.8072 20.0682 72.6651 20.0682ZM75.9698 20.0682C75.7596 20.0682 75.5792 19.9929 75.4286 19.8423C75.2781 19.6918 75.2028 19.5114 75.2028 19.3011C75.2028 19.0909 75.2781 18.9105 75.4286 18.7599C75.5792 18.6094 75.7596 18.5341 75.9698 18.5341C76.18 18.5341 76.3604 18.6094 76.511 18.7599C76.6616 18.9105 76.7369 19.0909 76.7369 19.3011C76.7369 19.4403 76.7013 19.5682 76.6303 19.6847C76.5621 19.8011 76.4698 19.8949 76.3533 19.9659C76.2397 20.0341 76.1119 20.0682 75.9698 20.0682Z" fill="#8D8D8D"/>
<path d="M199.455 22.7496L194.364 17.6515C193.909 18.0156 193.386 18.3039 192.795 18.5164C192.205 18.7288 191.576 18.835 190.909 18.835C189.258 18.835 187.86 18.2621 186.716 17.1162C185.573 15.9703 185.001 14.5708 185 12.9175C185 11.2636 185.572 9.86407 186.716 8.7188C187.861 7.57354 189.258 7.00061 190.909 7C192.561 7 193.958 7.57294 195.102 8.7188C196.245 9.86468 196.818 11.2642 196.818 12.9175C196.818 13.5851 196.712 14.2148 196.5 14.8065C196.288 15.3983 196 15.9218 195.636 16.377L200.75 21.4979C200.917 21.6648 201 21.8696 201 22.1124C201 22.3551 200.909 22.5676 200.727 22.7496C200.561 22.9165 200.348 23 200.091 23C199.833 23 199.621 22.9165 199.455 22.7496ZM190.909 17.0142C192.045 17.0142 193.012 16.6158 193.807 15.8189C194.603 15.022 195.001 14.0549 195 12.9175C195 11.7795 194.602 10.8121 193.806 10.0152C193.011 9.2183 192.045 8.82016 190.909 8.82077C189.773 8.82077 188.807 9.21921 188.011 10.0161C187.215 10.813 186.818 11.7801 186.818 12.9175C186.818 14.0555 187.216 15.0229 188.012 15.8198C188.808 16.6167 189.773 17.0148 190.909 17.0142Z" fill="#8D8D8D"/>
</svg>
