<svg width="234" height="87" viewBox="0 0 234 87" fill="none" xmlns="http://www.w3.org/2000/svg">
<path d="M1.86541 52.969H0.572798L4.31143 42.7872H5.58416L9.3228 52.969H8.03018L4.98757 44.398H4.90803L1.86541 52.969ZM2.34268 48.9917H7.55291V50.0855H2.34268V48.9917ZM11.9229 48.3752V52.969H10.7496V45.3326H11.8832V46.5258H11.9826C12.1616 46.138 12.4334 45.8265 12.7979 45.5912C13.1625 45.3525 13.6332 45.2332 14.2099 45.2332C14.7269 45.2332 15.1793 45.3393 15.5671 45.5514C15.9549 45.7602 16.2565 46.0784 16.4719 46.5059C16.6874 46.9302 16.7951 47.4671 16.7951 48.1167V52.969H15.6218V48.1963C15.6218 47.5964 15.466 47.129 15.1545 46.7943C14.8429 46.4562 14.4154 46.2872 13.8718 46.2872C13.4973 46.2872 13.1625 46.3684 12.8675 46.5308C12.5759 46.6932 12.3455 46.9302 12.1765 47.2417C12.0075 47.5533 11.9229 47.9311 11.9229 48.3752ZM18.9391 52.969V45.3326H20.0726V46.5258H20.1721C20.3311 46.1181 20.588 45.8016 20.9426 45.5762C21.2973 45.3475 21.7232 45.2332 22.2203 45.2332C22.7241 45.2332 23.1434 45.3475 23.4782 45.5762C23.8162 45.8016 24.0797 46.1181 24.2686 46.5258H24.3482C24.5437 46.1314 24.8371 45.8182 25.2282 45.5862C25.6193 45.3509 26.0882 45.2332 26.6351 45.2332C27.3179 45.2332 27.8764 45.447 28.3105 45.8745C28.7447 46.2988 28.9618 46.96 28.9618 47.8582V52.969H27.7885V47.8582C27.7885 47.2948 27.6344 46.8921 27.3262 46.6501C27.0179 46.4082 26.655 46.2872 26.2374 46.2872C25.7005 46.2872 25.2845 46.4496 24.9895 46.7744C24.6945 47.0959 24.5471 47.5036 24.5471 47.9974V52.969H23.3539V47.7389C23.3539 47.3047 23.213 46.955 22.9313 46.6899C22.6496 46.4214 22.2866 46.2872 21.8425 46.2872C21.5376 46.2872 21.2525 46.3684 20.9874 46.5308C20.7256 46.6932 20.5134 46.9186 20.351 47.2069C20.1919 47.492 20.1124 47.8217 20.1124 48.1963V52.969H18.9391ZM34.3088 53.1281C33.573 53.1281 32.9383 52.9657 32.4047 52.6409C31.8743 52.3127 31.465 51.8554 31.1767 51.2687C30.8916 50.6787 30.7491 49.9927 30.7491 49.2105C30.7491 48.4283 30.8916 47.7389 31.1767 47.1423C31.465 46.5424 31.8661 46.0751 32.3798 45.7403C32.8968 45.4022 33.5001 45.2332 34.1895 45.2332C34.5872 45.2332 34.9799 45.2995 35.3677 45.4321C35.7555 45.5646 36.1085 45.7801 36.4267 46.0784C36.7449 46.3734 36.9984 46.7644 37.1873 47.2517C37.3762 47.7389 37.4707 48.3388 37.4707 49.0514V49.5485H31.5843V48.5343H36.2775C36.2775 48.1035 36.1913 47.719 36.019 47.3809C35.85 47.0429 35.608 46.776 35.2931 46.5805C34.9816 46.385 34.6137 46.2872 34.1895 46.2872C33.7221 46.2872 33.3178 46.4032 32.9764 46.6352C32.6383 46.8639 32.3781 47.1622 32.1958 47.5301C32.0136 47.898 31.9224 48.2924 31.9224 48.7133V49.3894C31.9224 49.9662 32.0218 50.455 32.2207 50.8561C32.4229 51.2538 32.7029 51.5571 33.0609 51.7659C33.4189 51.9714 33.8348 52.0741 34.3088 52.0741C34.617 52.0741 34.8954 52.031 35.144 51.9448C35.3959 51.8554 35.613 51.7228 35.7953 51.5471C35.9776 51.3681 36.1184 51.1461 36.2179 50.8809L37.3514 51.1991C37.2321 51.5836 37.0315 51.9216 36.7498 52.2133C36.4681 52.5017 36.1201 52.727 35.7058 52.8894C35.2915 53.0485 34.8258 53.1281 34.3088 53.1281ZM40.4288 42.7872V52.969H39.2555V42.7872H40.4288ZM45.4613 53.1281C44.8249 53.1281 44.2631 52.9673 43.7759 52.6458C43.2887 52.321 42.9076 51.8636 42.6325 51.2737C42.3574 50.6804 42.2198 49.9794 42.2198 49.1707C42.2198 48.3686 42.3574 47.6726 42.6325 47.0826C42.9076 46.4927 43.2904 46.0369 43.7809 45.7154C44.2714 45.3939 44.8382 45.2332 45.4812 45.2332C45.9783 45.2332 46.3711 45.3161 46.6594 45.4818C46.9511 45.6442 47.1732 45.8298 47.3256 46.0386C47.4814 46.2441 47.6024 46.4131 47.6886 46.5457H47.788V42.7872H48.9613V52.969H47.8278V51.7957H47.6886C47.6024 51.9349 47.4798 52.1106 47.3207 52.3227C47.1616 52.5315 46.9345 52.7188 46.6396 52.8845C46.3446 53.0469 45.9518 53.1281 45.4613 53.1281ZM45.6204 52.0741C46.091 52.0741 46.4888 51.9515 46.8136 51.7062C47.1384 51.4576 47.3853 51.1146 47.5543 50.6771C47.7234 50.2363 47.8079 49.7275 47.8079 49.1508C47.8079 48.5807 47.725 48.0819 47.5593 47.6544C47.3936 47.2235 47.1483 46.8887 46.8235 46.6501C46.4987 46.4082 46.0977 46.2872 45.6204 46.2872C45.1232 46.2872 44.7089 46.4148 44.3775 46.67C44.0494 46.9219 43.8024 47.2649 43.6367 47.6991C43.4743 48.13 43.3931 48.6139 43.3931 49.1508C43.3931 49.6944 43.476 50.1882 43.6417 50.6323C43.8107 51.0732 44.0593 51.4245 44.3874 51.6863C44.7189 51.9448 45.1299 52.0741 45.6204 52.0741ZM54.4748 53.1281C53.739 53.1281 53.1043 52.9657 52.5707 52.6409C52.0404 52.3127 51.631 51.8554 51.3427 51.2687C51.0576 50.6787 50.9151 49.9927 50.9151 49.2105C50.9151 48.4283 51.0576 47.7389 51.3427 47.1423C51.631 46.5424 52.0321 46.0751 52.5458 45.7403C53.0629 45.4022 53.6661 45.2332 54.3555 45.2332C54.7532 45.2332 55.146 45.2995 55.5337 45.4321C55.9215 45.5646 56.2745 45.7801 56.5927 46.0784C56.9109 46.3734 57.1644 46.7644 57.3533 47.2517C57.5423 47.7389 57.6367 48.3388 57.6367 49.0514V49.5485H51.7504V48.5343H56.4435C56.4435 48.1035 56.3574 47.719 56.185 47.3809C56.016 47.0429 55.774 46.776 55.4592 46.5805C55.1476 46.385 54.7797 46.2872 54.3555 46.2872C53.8881 46.2872 53.4838 46.4032 53.1424 46.6352C52.8043 46.8639 52.5442 47.1622 52.3619 47.5301C52.1796 47.898 52.0884 48.2924 52.0884 48.7133V49.3894C52.0884 49.9662 52.1879 50.455 52.3867 50.8561C52.5889 51.2538 52.869 51.5571 53.2269 51.7659C53.5849 51.9714 54.0008 52.0741 54.4748 52.0741C54.783 52.0741 55.0614 52.031 55.31 51.9448C55.5619 51.8554 55.779 51.7228 55.9613 51.5471C56.1436 51.3681 56.2844 51.1461 56.3839 50.8809L57.5174 51.1991C57.3981 51.5836 57.1976 51.9216 56.9158 52.2133C56.6341 52.5017 56.2861 52.727 55.8718 52.8894C55.4575 53.0485 54.9918 53.1281 54.4748 53.1281ZM60.5948 42.7872V52.969H59.4215V42.7872H60.5948ZM68.1529 47.0429L67.0989 47.3412C67.0326 47.1655 66.9348 46.9948 66.8056 46.8291C66.6796 46.66 66.5073 46.5208 66.2885 46.4115C66.0698 46.3021 65.7897 46.2474 65.4483 46.2474C64.981 46.2474 64.5916 46.3551 64.28 46.5706C63.9718 46.7827 63.8176 47.0528 63.8176 47.3809C63.8176 47.6726 63.9237 47.9029 64.1358 48.072C64.348 48.241 64.6794 48.3819 65.1301 48.4946L66.2637 48.773C66.9464 48.9387 67.4552 49.1922 67.79 49.5336C68.1247 49.8717 68.2921 50.3075 68.2921 50.8412C68.2921 51.2787 68.1661 51.6698 67.9142 52.0144C67.6657 52.3591 67.3176 52.6309 66.8702 52.8298C66.4228 53.0287 65.9024 53.1281 65.3091 53.1281C64.5302 53.1281 63.8856 52.9591 63.3752 52.621C62.8648 52.2829 62.5416 51.7891 62.4057 51.1394L63.5194 50.861C63.6254 51.272 63.8259 51.5803 64.1209 51.7858C64.4192 51.9912 64.8087 52.094 65.2892 52.094C65.8361 52.094 66.2703 51.978 66.5918 51.746C66.9166 51.5107 67.079 51.2289 67.079 50.9008C67.079 50.6357 66.9862 50.4136 66.8006 50.2346C66.615 50.0523 66.33 49.9164 65.9455 49.8269L64.6728 49.5287C63.9734 49.3629 63.4597 49.1061 63.1316 48.7581C62.8068 48.4067 62.6444 47.9676 62.6444 47.4406C62.6444 47.0097 62.7653 46.6286 63.0073 46.2971C63.2525 45.9657 63.5856 45.7055 64.0066 45.5166C64.4308 45.3277 64.9114 45.2332 65.4483 45.2332C66.204 45.2332 66.7973 45.3989 67.2282 45.7304C67.6623 46.0618 67.9706 46.4993 68.1529 47.0429ZM73.2599 53.1281C72.5241 53.1281 71.8894 52.9657 71.3558 52.6409C70.8255 52.3127 70.4162 51.8554 70.1278 51.2687C69.8428 50.6787 69.7003 49.9927 69.7003 49.2105C69.7003 48.4283 69.8428 47.7389 70.1278 47.1423C70.4162 46.5424 70.8172 46.0751 71.331 45.7403C71.848 45.4022 72.4512 45.2332 73.1406 45.2332C73.5384 45.2332 73.9311 45.2995 74.3189 45.4321C74.7067 45.5646 75.0597 45.7801 75.3778 46.0784C75.696 46.3734 75.9496 46.7644 76.1385 47.2517C76.3274 47.7389 76.4219 48.3388 76.4219 49.0514V49.5485H70.5355V48.5343H75.2287C75.2287 48.1035 75.1425 47.719 74.9702 47.3809C74.8011 47.0429 74.5592 46.776 74.2443 46.5805C73.9328 46.385 73.5649 46.2872 73.1406 46.2872C72.6733 46.2872 72.2689 46.4032 71.9276 46.6352C71.5895 46.8639 71.3293 47.1622 71.147 47.5301C70.9647 47.898 70.8736 48.2924 70.8736 48.7133V49.3894C70.8736 49.9662 70.973 50.455 71.1719 50.8561C71.3741 51.2538 71.6541 51.5571 72.0121 51.7659C72.37 51.9714 72.786 52.0741 73.2599 52.0741C73.5682 52.0741 73.8466 52.031 74.0952 51.9448C74.3471 51.8554 74.5642 51.7228 74.7464 51.5471C74.9287 51.3681 75.0696 51.1461 75.169 50.8809L76.3026 51.1991C76.1832 51.5836 75.9827 51.9216 75.701 52.2133C75.4193 52.5017 75.0713 52.727 74.657 52.8894C74.2427 53.0485 73.777 53.1281 73.2599 53.1281ZM78.2067 52.969V45.3326H79.3402V46.486H79.4197C79.5589 46.1082 79.8108 45.8016 80.1754 45.5663C80.54 45.331 80.951 45.2133 81.4084 45.2133C81.4946 45.2133 81.6023 45.215 81.7315 45.2183C81.8608 45.2216 81.9586 45.2266 82.0249 45.2332V46.4264C81.9851 46.4164 81.8939 46.4015 81.7514 46.3816C81.6122 46.3584 81.4647 46.3468 81.3089 46.3468C80.9377 46.3468 80.6063 46.4247 80.3146 46.5805C80.0263 46.733 79.7976 46.9451 79.6286 47.2169C79.4628 47.4853 79.38 47.7919 79.38 48.1366V52.969H78.2067ZM90.9128 42.7872V52.969H89.6799V44.0798H89.6202L87.1344 45.7304V44.4775L89.6799 42.7872H90.9128ZM97.2814 53.1082C96.6252 53.1082 96.0402 52.9955 95.5265 52.7701C95.016 52.5448 94.61 52.2315 94.3084 51.8305C94.0101 51.4261 93.8477 50.9572 93.8212 50.4235H95.074C95.1006 50.7517 95.2132 51.035 95.4121 51.2737C95.611 51.509 95.8712 51.6913 96.1926 51.8206C96.5141 51.9498 96.8704 52.0144 97.2615 52.0144C97.699 52.0144 98.0868 51.9382 98.4249 51.7858C98.763 51.6333 99.0281 51.4212 99.2203 51.1494C99.4126 50.8776 99.5087 50.5627 99.5087 50.2048C99.5087 49.8303 99.4159 49.5005 99.2303 49.2154C99.0447 48.9271 98.7729 48.7017 98.415 48.5393C98.057 48.3769 97.6195 48.2957 97.1025 48.2957H96.2871V47.2019H97.1025C97.5068 47.2019 97.8614 47.129 98.1664 46.9832C98.4746 46.8374 98.7149 46.6319 98.8873 46.3667C99.0629 46.1016 99.1507 45.79 99.1507 45.4321C99.1507 45.0874 99.0745 44.7874 98.9221 44.5322C98.7696 44.277 98.5542 44.0781 98.2757 43.9356C98.0007 43.7931 97.6758 43.7218 97.3013 43.7218C96.95 43.7218 96.6185 43.7865 96.307 43.9157C95.9988 44.0417 95.7469 44.2256 95.5513 44.4676C95.3558 44.7062 95.2497 44.9946 95.2331 45.3326H94.04C94.0598 44.799 94.2206 44.3317 94.5222 43.9306C94.8238 43.5263 95.2182 43.2114 95.7054 42.986C96.196 42.7607 96.7346 42.648 97.3212 42.648C97.9509 42.648 98.4912 42.7756 98.9419 43.0308C99.3927 43.2827 99.7391 43.6158 99.981 44.0301C100.223 44.4444 100.344 44.8918 100.344 45.3724C100.344 45.9458 100.193 46.4347 99.8915 46.839C99.5932 47.2434 99.1872 47.5234 98.6735 47.6792V47.7588C99.3165 47.8648 99.8186 48.1383 100.18 48.5791C100.541 49.0166 100.722 49.5585 100.722 50.2048C100.722 50.7583 100.571 51.2555 100.269 51.6963C99.9711 52.1338 99.5634 52.4785 99.0463 52.7304C98.5293 52.9823 97.941 53.1082 97.2814 53.1082ZM103.316 53.0485C103.07 53.0485 102.86 52.9607 102.684 52.785C102.509 52.6094 102.421 52.3989 102.421 52.1537C102.421 51.9084 102.509 51.6979 102.684 51.5223C102.86 51.3466 103.07 51.2588 103.316 51.2588C103.561 51.2588 103.771 51.3466 103.947 51.5223C104.123 51.6979 104.211 51.9084 104.211 52.1537C104.211 52.3161 104.169 52.4652 104.086 52.6011C104.007 52.737 103.899 52.8464 103.763 52.9292C103.631 53.0088 103.481 53.0485 103.316 53.0485ZM109.243 53.1082C108.56 53.1082 107.957 52.9872 107.433 52.7453C106.913 52.5 106.507 52.1636 106.215 51.736C105.924 51.3052 105.78 50.8146 105.783 50.2644C105.78 49.8336 105.864 49.4359 106.036 49.0713C106.209 48.7034 106.444 48.3968 106.742 48.1515C107.044 47.9029 107.38 47.7455 107.752 47.6792V47.6196C107.264 47.4936 106.877 47.2202 106.588 46.7992C106.3 46.375 106.157 45.8928 106.161 45.3525C106.157 44.8355 106.288 44.3731 106.553 43.9654C106.819 43.5578 107.183 43.2363 107.647 43.001C108.115 42.7656 108.646 42.648 109.243 42.648C109.833 42.648 110.36 42.7656 110.824 43.001C111.288 43.2363 111.653 43.5578 111.918 43.9654C112.186 44.3731 112.322 44.8355 112.325 45.3525C112.322 45.8928 112.175 46.375 111.883 46.7992C111.595 47.2202 111.212 47.4936 110.735 47.6196V47.6792C111.102 47.7455 111.434 47.9029 111.729 48.1515C112.024 48.3968 112.259 48.7034 112.435 49.0713C112.61 49.4359 112.7 49.8336 112.703 50.2644C112.7 50.8146 112.551 51.3052 112.256 51.736C111.964 52.1636 111.558 52.5 111.038 52.7453C110.521 52.9872 109.923 53.1082 109.243 53.1082ZM109.243 52.0144C109.704 52.0144 110.102 51.9399 110.436 51.7907C110.771 51.6416 111.03 51.4311 111.212 51.1593C111.394 50.8876 111.487 50.5694 111.49 50.2048C111.487 49.8203 111.387 49.4806 111.192 49.1856C110.996 48.8906 110.73 48.6586 110.392 48.4896C110.057 48.3206 109.674 48.236 109.243 48.236C108.809 48.236 108.421 48.3206 108.08 48.4896C107.742 48.6586 107.475 48.8906 107.279 49.1856C107.087 49.4806 106.993 49.8203 106.996 50.2048C106.993 50.5694 107.08 50.8876 107.259 51.1593C107.442 51.4311 107.702 51.6416 108.04 51.7907C108.378 51.9399 108.779 52.0144 109.243 52.0144ZM109.243 47.1821C109.608 47.1821 109.931 47.1091 110.213 46.9633C110.498 46.8175 110.721 46.6136 110.884 46.3518C111.046 46.09 111.129 45.7834 111.132 45.4321C111.129 45.0874 111.048 44.7874 110.889 44.5322C110.73 44.2737 110.509 44.0748 110.227 43.9356C109.946 43.7931 109.618 43.7218 109.243 43.7218C108.862 43.7218 108.529 43.7931 108.244 43.9356C107.959 44.0748 107.738 44.2737 107.583 44.5322C107.427 44.7874 107.351 45.0874 107.354 45.4321C107.351 45.7834 107.428 46.09 107.588 46.3518C107.75 46.6136 107.974 46.8175 108.259 46.9633C108.544 47.1091 108.872 47.1821 109.243 47.1821ZM118.188 42.7872V52.969H116.955V44.0798H116.896L114.41 45.7304V44.4775L116.955 42.7872H118.188ZM120.878 50.8809V49.8667L125.352 42.7872H126.088V44.3582H125.591L122.21 49.7076V49.7872H128.236V50.8809H120.878ZM125.67 52.969V50.5727V50.1004V42.7872H126.844V52.969H125.67ZM136.92 50.0656C136.519 50.0656 136.153 49.9678 135.821 49.7723C135.49 49.5734 135.225 49.3082 135.026 48.9768C134.83 48.6454 134.732 48.2791 134.732 47.8781C134.732 47.4737 134.83 47.1075 135.026 46.7794C135.225 46.4479 135.49 46.1844 135.821 45.9889C136.153 45.79 136.519 45.6906 136.92 45.6906C137.324 45.6906 137.691 45.79 138.019 45.9889C138.35 46.1844 138.614 46.4479 138.809 46.7794C139.008 47.1075 139.107 47.4737 139.107 47.8781C139.107 48.2791 139.008 48.6454 138.809 48.9768C138.614 49.3082 138.35 49.5734 138.019 49.7723C137.691 49.9678 137.324 50.0656 136.92 50.0656ZM146.028 52.969V42.7872H152.133V43.8809H147.261V47.3213H151.676V48.415H147.261V52.969H146.028ZM154.004 52.969V45.3326H155.137V46.486H155.217C155.356 46.1082 155.608 45.8016 155.972 45.5663C156.337 45.331 156.748 45.2133 157.205 45.2133C157.291 45.2133 157.399 45.215 157.528 45.2183C157.658 45.2216 157.755 45.2266 157.822 45.2332V46.4264C157.782 46.4164 157.691 46.4015 157.548 46.3816C157.409 46.3584 157.262 46.3468 157.106 46.3468C156.735 46.3468 156.403 46.4247 156.112 46.5805C155.823 46.733 155.594 46.9451 155.425 47.2169C155.26 47.4853 155.177 47.7919 155.177 48.1366V52.969H154.004ZM162.182 53.1281C161.446 53.1281 160.811 52.9657 160.278 52.6409C159.747 52.3127 159.338 51.8554 159.05 51.2687C158.765 50.6787 158.622 49.9927 158.622 49.2105C158.622 48.4283 158.765 47.7389 159.05 47.1423C159.338 46.5424 159.739 46.0751 160.253 45.7403C160.77 45.4022 161.373 45.2332 162.062 45.2332C162.46 45.2332 162.853 45.2995 163.241 45.4321C163.629 45.5646 163.982 45.7801 164.3 46.0784C164.618 46.3734 164.871 46.7644 165.06 47.2517C165.249 47.7389 165.344 48.3388 165.344 49.0514V49.5485H159.457V48.5343H164.151C164.151 48.1035 164.064 47.719 163.892 47.3809C163.723 47.0429 163.481 46.776 163.166 46.5805C162.855 46.385 162.487 46.2872 162.062 46.2872C161.595 46.2872 161.191 46.4032 160.849 46.6352C160.511 46.8639 160.251 47.1622 160.069 47.5301C159.887 47.898 159.795 48.2924 159.795 48.7133V49.3894C159.795 49.9662 159.895 50.455 160.094 50.8561C160.296 51.2538 160.576 51.5571 160.934 51.7659C161.292 51.9714 161.708 52.0741 162.182 52.0741C162.49 52.0741 162.768 52.031 163.017 51.9448C163.269 51.8554 163.486 51.7228 163.668 51.5471C163.851 51.3681 163.991 51.1461 164.091 50.8809L165.224 51.1991C165.105 51.5836 164.905 51.9216 164.623 52.2133C164.341 52.5017 163.993 52.727 163.579 52.8894C163.165 53.0485 162.699 53.1281 162.182 53.1281ZM167.129 52.969V45.3326H168.262V46.5258H168.362C168.521 46.1181 168.777 45.8016 169.132 45.5762C169.487 45.3475 169.913 45.2332 170.41 45.2332C170.914 45.2332 171.333 45.3475 171.668 45.5762C172.006 45.8016 172.269 46.1181 172.458 46.5258H172.538C172.733 46.1314 173.027 45.8182 173.418 45.5862C173.809 45.3509 174.278 45.2332 174.825 45.2332C175.507 45.2332 176.066 45.447 176.5 45.8745C176.934 46.2988 177.151 46.96 177.151 47.8582V52.969H175.978V47.8582C175.978 47.2948 175.824 46.8921 175.516 46.6501C175.207 46.4082 174.844 46.2872 174.427 46.2872C173.89 46.2872 173.474 46.4496 173.179 46.7744C172.884 47.0959 172.737 47.5036 172.737 47.9974V52.969H171.543V47.7389C171.543 47.3047 171.402 46.955 171.121 46.6899C170.839 46.4214 170.476 46.2872 170.032 46.2872C169.727 46.2872 169.442 46.3684 169.177 46.5308C168.915 46.6932 168.703 46.9186 168.54 47.2069C168.381 47.492 168.302 47.8217 168.302 48.1963V52.969H167.129ZM179.297 52.969V45.3326H180.43V46.486H180.51C180.649 46.1082 180.901 45.8016 181.265 45.5663C181.63 45.331 182.041 45.2133 182.498 45.2133C182.584 45.2133 182.692 45.215 182.821 45.2183C182.951 45.2216 183.048 45.2266 183.115 45.2332V46.4264C183.075 46.4164 182.984 46.4015 182.841 46.3816C182.702 46.3584 182.555 46.3468 182.399 46.3468C182.028 46.3468 181.696 46.4247 181.404 46.5805C181.116 46.733 180.887 46.9451 180.718 47.2169C180.553 47.4853 180.47 47.7919 180.47 48.1366V52.969H179.297ZM186.753 53.148C186.269 53.148 185.83 53.0568 185.435 52.8745C185.041 52.6889 184.728 52.4221 184.496 52.0741C184.264 51.7228 184.148 51.2985 184.148 50.8014C184.148 50.3639 184.234 50.0092 184.406 49.7375C184.578 49.4624 184.809 49.2469 185.097 49.0912C185.385 48.9354 185.704 48.8194 186.052 48.7431C186.403 48.6636 186.756 48.6006 187.111 48.5542C187.575 48.4946 187.951 48.4498 188.239 48.42C188.531 48.3868 188.743 48.3322 188.876 48.2559C189.011 48.1797 189.079 48.0471 189.079 47.8582V47.8184C189.079 47.3279 188.945 46.9467 188.677 46.675C188.412 46.4032 188.009 46.2673 187.469 46.2673C186.908 46.2673 186.469 46.3899 186.151 46.6352C185.833 46.8805 185.609 47.1423 185.48 47.4207L184.366 47.023C184.565 46.559 184.83 46.1977 185.162 45.9392C185.497 45.6773 185.861 45.495 186.256 45.3923C186.653 45.2862 187.044 45.2332 187.429 45.2332C187.674 45.2332 187.956 45.263 188.274 45.3227C188.595 45.379 188.905 45.4967 189.204 45.6757C189.505 45.8546 189.756 46.1248 189.954 46.486C190.153 46.8473 190.253 47.3312 190.253 47.9377V52.969H189.079V51.9349H189.02C188.94 52.1006 188.808 52.2779 188.622 52.4669C188.436 52.6558 188.189 52.8165 187.881 52.9491C187.573 53.0817 187.197 53.148 186.753 53.148ZM186.932 52.094C187.396 52.094 187.787 52.0028 188.105 51.8206C188.426 51.6383 188.668 51.4029 188.831 51.1146C188.997 50.8262 189.079 50.523 189.079 50.2048V49.1309C189.03 49.1906 188.92 49.2453 188.751 49.295C188.586 49.3414 188.393 49.3828 188.175 49.4193C187.959 49.4524 187.749 49.4823 187.543 49.5088C187.341 49.532 187.177 49.5519 187.051 49.5684C186.746 49.6082 186.461 49.6728 186.196 49.7623C185.934 49.8485 185.722 49.9794 185.559 50.1551C185.4 50.3274 185.321 50.5627 185.321 50.861C185.321 51.2687 185.472 51.5769 185.773 51.7858C186.078 51.9912 186.464 52.094 186.932 52.094ZM195.477 55.9917C194.91 55.9917 194.423 55.9188 194.015 55.773C193.607 55.6305 193.268 55.4415 192.996 55.2062C192.727 54.9742 192.513 54.7256 192.354 54.4605L193.289 53.8042C193.395 53.9434 193.529 54.1025 193.692 54.2815C193.854 54.4638 194.076 54.6212 194.358 54.7538C194.643 54.8897 195.016 54.9576 195.477 54.9576C196.093 54.9576 196.602 54.8085 197.003 54.5102C197.404 54.2119 197.604 53.7446 197.604 53.1082V51.5571H197.505C197.419 51.6963 197.296 51.8686 197.137 52.0741C196.981 52.2763 196.756 52.4569 196.461 52.616C196.169 52.7718 195.775 52.8497 195.278 52.8497C194.661 52.8497 194.108 52.7038 193.617 52.4122C193.13 52.1205 192.744 51.6963 192.459 51.1394C192.177 50.5826 192.036 49.9065 192.036 49.111C192.036 48.3288 192.174 47.6477 192.449 47.0677C192.724 46.4844 193.107 46.0336 193.597 45.7154C194.088 45.3939 194.655 45.2332 195.298 45.2332C195.795 45.2332 196.189 45.3161 196.481 45.4818C196.776 45.6442 197.001 45.8298 197.157 46.0386C197.316 46.2441 197.439 46.4131 197.525 46.5457H197.644V45.3326H198.778V53.1877C198.778 53.844 198.629 54.3776 198.33 54.7886C198.035 55.2029 197.638 55.5062 197.137 55.6984C196.64 55.8939 196.086 55.9917 195.477 55.9917ZM195.437 51.7957C195.907 51.7957 196.305 51.688 196.63 51.4725C196.955 51.2571 197.202 50.9472 197.371 50.5429C197.54 50.1385 197.624 49.6546 197.624 49.0912C197.624 48.541 197.541 48.0554 197.376 47.6345C197.21 47.2135 196.965 46.8838 196.64 46.6451C196.315 46.4065 195.914 46.2872 195.437 46.2872C194.94 46.2872 194.525 46.4131 194.194 46.665C193.866 46.9169 193.619 47.255 193.453 47.6792C193.291 48.1035 193.21 48.5741 193.21 49.0912C193.21 49.6215 193.292 50.0904 193.458 50.4981C193.627 50.9025 193.876 51.2207 194.204 51.4527C194.535 51.6814 194.946 51.7957 195.437 51.7957ZM204.127 53.1281C203.391 53.1281 202.757 52.9657 202.223 52.6409C201.693 52.3127 201.283 51.8554 200.995 51.2687C200.71 50.6787 200.567 49.9927 200.567 49.2105C200.567 48.4283 200.71 47.7389 200.995 47.1423C201.283 46.5424 201.684 46.0751 202.198 45.7403C202.715 45.4022 203.318 45.2332 204.008 45.2332C204.406 45.2332 204.798 45.2995 205.186 45.4321C205.574 45.5646 205.927 45.7801 206.245 46.0784C206.563 46.3734 206.817 46.7644 207.006 47.2517C207.195 47.7389 207.289 48.3388 207.289 49.0514V49.5485H201.403V48.5343H206.096C206.096 48.1035 206.01 47.719 205.837 47.3809C205.668 47.0429 205.426 46.776 205.112 46.5805C204.8 46.385 204.432 46.2872 204.008 46.2872C203.54 46.2872 203.136 46.4032 202.795 46.6352C202.457 46.8639 202.196 47.1622 202.014 47.5301C201.832 47.898 201.741 48.2924 201.741 48.7133V49.3894C201.741 49.9662 201.84 50.455 202.039 50.8561C202.241 51.2538 202.521 51.5571 202.879 51.7659C203.237 51.9714 203.653 52.0741 204.127 52.0741C204.435 52.0741 204.714 52.031 204.962 51.9448C205.214 51.8554 205.431 51.7228 205.614 51.5471C205.796 51.3681 205.937 51.1461 206.036 50.8809L207.17 51.1991C207.05 51.5836 206.85 51.9216 206.568 52.2133C206.286 52.5017 205.938 52.727 205.524 52.8894C205.11 53.0485 204.644 53.1281 204.127 53.1281ZM210.247 48.3752V52.969H209.074V45.3326H210.207V46.5258H210.307C210.486 46.138 210.758 45.8265 211.122 45.5912C211.487 45.3525 211.957 45.2332 212.534 45.2332C213.051 45.2332 213.504 45.3393 213.891 45.5514C214.279 45.7602 214.581 46.0784 214.796 46.5059C215.012 46.9302 215.119 47.4671 215.119 48.1167V52.969H213.946V48.1963C213.946 47.5964 213.79 47.129 213.479 46.7943C213.167 46.4562 212.74 46.2872 212.196 46.2872C211.821 46.2872 211.487 46.3684 211.192 46.5308C210.9 46.6932 210.67 46.9302 210.501 47.2417C210.332 47.5533 210.247 47.9311 210.247 48.3752ZM220.147 53.1281C219.51 53.1281 218.949 52.9673 218.461 52.6458C217.974 52.321 217.593 51.8636 217.318 51.2737C217.043 50.6804 216.905 49.9794 216.905 49.1707C216.905 48.3686 217.043 47.6726 217.318 47.0826C217.593 46.4927 217.976 46.0369 218.466 45.7154C218.957 45.3939 219.524 45.2332 220.167 45.2332C220.664 45.2332 221.057 45.3161 221.345 45.4818C221.637 45.6442 221.859 45.8298 222.011 46.0386C222.167 46.2441 222.288 46.4131 222.374 46.5457H222.474V42.7872H223.647V52.969H222.513V51.7957H222.374C222.288 51.9349 222.165 52.1106 222.006 52.3227C221.847 52.5315 221.62 52.7188 221.325 52.8845C221.03 53.0469 220.637 53.1281 220.147 53.1281ZM220.306 52.0741C220.777 52.0741 221.174 51.9515 221.499 51.7062C221.824 51.4576 222.071 51.1146 222.24 50.6771C222.409 50.2363 222.493 49.7275 222.493 49.1508C222.493 48.5807 222.411 48.0819 222.245 47.6544C222.079 47.2235 221.834 46.8887 221.509 46.6501C221.184 46.4082 220.783 46.2872 220.306 46.2872C219.809 46.2872 219.394 46.4148 219.063 46.67C218.735 46.9219 218.488 47.2649 218.322 47.6991C218.16 48.13 218.079 48.6139 218.079 49.1508C218.079 49.6944 218.162 50.1882 218.327 50.6323C218.496 51.0732 218.745 51.4245 219.073 51.6863C219.404 51.9448 219.815 52.0741 220.306 52.0741ZM229.16 53.1281C228.425 53.1281 227.79 52.9657 227.256 52.6409C226.726 52.3127 226.317 51.8554 226.028 51.2687C225.743 50.6787 225.601 49.9927 225.601 49.2105C225.601 48.4283 225.743 47.7389 226.028 47.1423C226.317 46.5424 226.718 46.0751 227.231 45.7403C227.748 45.4022 228.352 45.2332 229.041 45.2332C229.439 45.2332 229.831 45.2995 230.219 45.4321C230.607 45.5646 230.96 45.7801 231.278 46.0784C231.596 46.3734 231.85 46.7644 232.039 47.2517C232.228 47.7389 232.322 48.3388 232.322 49.0514V49.5485H226.436V48.5343H231.129C231.129 48.1035 231.043 47.719 230.871 47.3809C230.702 47.0429 230.46 46.776 230.145 46.5805C229.833 46.385 229.465 46.2872 229.041 46.2872C228.574 46.2872 228.169 46.4032 227.828 46.6352C227.49 46.8639 227.23 47.1622 227.047 47.5301C226.865 47.898 226.774 48.2924 226.774 48.7133V49.3894C226.774 49.9662 226.873 50.455 227.072 50.8561C227.274 51.2538 227.555 51.5571 227.912 51.7659C228.27 51.9714 228.686 52.0741 229.16 52.0741C229.469 52.0741 229.747 52.031 229.996 51.9448C230.247 51.8554 230.465 51.7228 230.647 51.5471C230.829 51.3681 230.97 51.1461 231.069 50.8809L232.203 51.1991C232.084 51.5836 231.883 51.9216 231.601 52.2133C231.32 52.5017 230.972 52.727 230.557 52.8894C230.143 53.0485 229.677 53.1281 229.16 53.1281Z" fill="black"/>
<path d="M31.2296 10.2661H43.1673V12.4884H38.467V25.0161H35.8906V12.4884H31.21L31.2296 10.2661ZM42.656 14.3371H44.8586V16.4021H44.898C44.9766 16.1071 45.1143 15.8318 45.311 15.5564C45.5076 15.2811 45.7436 15.0254 46.0386 14.8091C46.314 14.5731 46.6286 14.3961 46.9826 14.2584C47.317 14.1208 47.671 14.0421 48.025 14.0421C48.3003 14.0421 48.497 14.0618 48.5953 14.0618C48.6936 14.0814 48.8116 14.1011 48.91 14.1011V16.3628C48.7526 16.3234 48.5756 16.3038 48.3986 16.2841C48.2216 16.2644 48.0643 16.2448 47.8873 16.2448C47.494 16.2448 47.1203 16.3234 46.7663 16.4808C46.4123 16.6381 46.1173 16.8741 45.842 17.1691C45.5863 17.4838 45.37 17.8574 45.2126 18.3098C45.0553 18.7621 44.9766 19.2931 44.9766 19.8831V24.9571H42.6166L42.656 14.3371ZM59.7266 25.0161H57.406V23.5214H57.3666C57.0716 24.0721 56.639 24.4851 56.0686 24.8194C55.4983 25.1538 54.9083 25.3111 54.3183 25.3111C52.922 25.3111 51.8993 24.9768 51.27 24.2688C50.6406 23.5804 50.326 22.5184 50.326 21.1221V14.3371H52.686V20.8861C52.686 21.8301 52.863 22.4988 53.2366 22.8724C53.5906 23.2658 54.102 23.4624 54.751 23.4624C55.2426 23.4624 55.6556 23.3838 55.99 23.2264C56.3243 23.0691 56.5996 22.8724 56.7963 22.6168C57.0126 22.3611 57.1503 22.0464 57.2486 21.6924C57.347 21.3384 57.3863 20.9451 57.3863 20.5321V14.3371H59.7463V25.0161H59.7266ZM63.7386 21.5941C63.8173 22.2824 64.073 22.7544 64.5253 23.0494C64.9776 23.3248 65.5283 23.4624 66.1576 23.4624C66.374 23.4624 66.6296 23.4428 66.905 23.4034C67.1803 23.3641 67.4556 23.3051 67.6916 23.2068C67.9473 23.1084 68.144 22.9708 68.3013 22.7741C68.4586 22.5774 68.5373 22.3414 68.5176 22.0464C68.498 21.7514 68.3996 21.4958 68.1833 21.2991C67.967 21.1024 67.7113 20.9648 67.3966 20.8271C67.082 20.7091 66.7083 20.6108 66.2953 20.5321C65.8823 20.4534 65.4693 20.3551 65.0366 20.2568C64.604 20.1584 64.1713 20.0404 63.7583 19.9028C63.3453 19.7651 62.9913 19.5881 62.657 19.3324C62.3423 19.0964 62.067 18.8014 61.89 18.4278C61.6933 18.0541 61.595 17.6214 61.595 17.0708C61.595 16.4808 61.7326 16.0088 62.0276 15.6154C62.303 15.2221 62.6766 14.9074 63.1093 14.6714C63.542 14.4354 64.0336 14.2584 64.5646 14.1601C65.0956 14.0618 65.607 14.0224 66.079 14.0224C66.6296 14.0224 67.1606 14.0814 67.6523 14.1994C68.144 14.3174 68.616 14.4944 69.0093 14.7698C69.4223 15.0254 69.7566 15.3794 70.0123 15.7924C70.2876 16.2054 70.445 16.7168 70.5236 17.3068H68.0653C67.9473 16.7364 67.6916 16.3628 67.2983 16.1661C66.8853 15.9694 66.433 15.8711 65.902 15.8711C65.7446 15.8711 65.5283 15.8908 65.312 15.9104C65.076 15.9498 64.8793 15.9891 64.663 16.0678C64.4663 16.1464 64.2893 16.2644 64.1516 16.4021C64.014 16.5398 63.9353 16.7364 63.9353 16.9724C63.9353 17.2674 64.0336 17.4838 64.2303 17.6608C64.427 17.8378 64.6826 17.9754 65.017 18.1131C65.3316 18.2311 65.7053 18.3294 66.1183 18.4081C66.5313 18.4868 66.964 18.5851 67.3966 18.6834C67.8293 18.7818 68.2423 18.8998 68.6553 19.0374C69.0683 19.1751 69.442 19.3521 69.7566 19.6078C70.0713 19.8438 70.3466 20.1388 70.5433 20.4928C70.74 20.8468 70.8383 21.2991 70.8383 21.8104C70.8383 22.4398 70.7006 22.9708 70.4056 23.4231C70.1106 23.8558 69.737 24.2294 69.2846 24.5048C68.8323 24.7801 68.3013 24.9768 67.7506 25.1144C67.1803 25.2324 66.6296 25.3111 66.079 25.3111C65.4103 25.3111 64.781 25.2324 64.2106 25.0751C63.6403 24.9178 63.129 24.6818 62.716 24.3868C62.303 24.0721 61.9686 23.6984 61.7326 23.2264C61.4966 22.7741 61.359 22.2234 61.3393 21.5744H63.719V21.5941H63.7386ZM71.507 14.3371H73.2966V11.1118H75.6566V14.3174H77.7806V16.0678H75.6566V21.7711C75.6566 22.0268 75.6763 22.2234 75.6959 22.4201C75.7156 22.5971 75.7746 22.7544 75.8336 22.8724C75.9123 22.9904 76.0303 23.0888 76.168 23.1478C76.3253 23.2068 76.5219 23.2461 76.7973 23.2461C76.9546 23.2461 77.1316 23.2461 77.2889 23.2264C77.4463 23.2068 77.6233 23.1871 77.7806 23.1478V24.9768C77.5249 25.0161 77.2693 25.0358 77.0136 25.0554C76.758 25.0948 76.522 25.0948 76.2466 25.0948C75.6173 25.0948 75.1256 25.0358 74.752 24.9178C74.3783 24.7998 74.0833 24.6228 73.867 24.4064C73.6506 24.1704 73.5129 23.8951 73.4343 23.5608C73.3556 23.2264 73.3163 22.8134 73.2966 22.3808V16.0874H71.507V14.2978V14.3371ZM79.4326 14.3371H81.655V15.7924H81.6943C82.0286 15.1631 82.4809 14.7304 83.0709 14.4551C83.6609 14.1798 84.2903 14.0421 84.9983 14.0421C85.844 14.0421 86.5716 14.1798 87.2009 14.4944C87.8303 14.7894 88.3416 15.1828 88.7546 15.7138C89.1676 16.2251 89.4823 16.8348 89.6789 17.5231C89.8756 18.2114 89.9936 18.9588 89.9936 19.7258C89.9936 20.4534 89.8953 21.1418 89.7183 21.8104C89.5216 22.4791 89.2463 23.0888 88.8726 23.6001C88.4989 24.1114 88.0269 24.5244 87.4369 24.8391C86.8469 25.1538 86.1783 25.3111 85.3916 25.3111C85.0573 25.3111 84.7033 25.2718 84.3689 25.2128C84.0346 25.1538 83.7003 25.0554 83.3856 24.9178C83.0709 24.7801 82.7759 24.6031 82.5203 24.3868C82.2449 24.1704 82.0286 23.9148 81.8516 23.6394H81.8123V28.9691H79.4523V14.3371H79.4326ZM87.673 19.6864C87.673 19.2144 87.614 18.7424 87.4763 18.2901C87.3583 17.8378 87.1616 17.4444 86.9059 17.0904C86.6503 16.7364 86.3356 16.4611 85.9816 16.2448C85.608 16.0284 85.1753 15.9301 84.7033 15.9301C83.72 15.9301 82.9726 16.2644 82.4613 16.9528C81.9696 17.6411 81.7139 18.5654 81.7139 19.7061C81.7139 20.2568 81.7729 20.7484 81.9106 21.2008C82.0483 21.6531 82.2253 22.0464 82.5006 22.3808C82.7563 22.7151 83.071 22.9708 83.4446 23.1674C83.8183 23.3641 84.2313 23.4624 84.723 23.4624C85.2736 23.4624 85.7063 23.3444 86.08 23.1281C86.4536 22.9118 86.7486 22.6168 87.0043 22.2824C87.2403 21.9284 87.4173 21.5351 87.5156 21.0828C87.6139 20.6108 87.673 20.1584 87.673 19.6864ZM91.8226 10.2661H94.1826V12.4884H91.8226V10.2661ZM91.8226 14.3371H94.1826V25.0161H91.8226V14.3371ZM96.2869 10.2661H98.6469V25.0161H96.2869V10.2661ZM105.845 25.3111C104.999 25.3111 104.232 25.1734 103.564 24.8784C102.895 24.5834 102.344 24.2098 101.872 23.7181C101.42 23.2264 101.066 22.6168 100.83 21.9284C100.594 21.2401 100.456 20.4731 100.456 19.6668C100.456 18.8604 100.574 18.1131 100.83 17.4248C101.066 16.7364 101.42 16.1464 101.872 15.6351C102.325 15.1434 102.895 14.7501 103.564 14.4748C104.232 14.1994 104.999 14.0421 105.845 14.0421C106.691 14.0421 107.458 14.1798 108.126 14.4748C108.795 14.7501 109.346 15.1434 109.818 15.6351C110.27 16.1268 110.624 16.7364 110.86 17.4248C111.096 18.1131 111.234 18.8604 111.234 19.6668C111.234 20.4928 111.116 21.2401 110.86 21.9284C110.604 22.6168 110.27 23.2068 109.818 23.7181C109.365 24.2098 108.795 24.6031 108.126 24.8784C107.458 25.1538 106.71 25.3111 105.845 25.3111ZM105.845 23.4428C106.356 23.4428 106.828 23.3248 107.202 23.1084C107.595 22.8921 107.89 22.5971 108.146 22.2431C108.402 21.8891 108.579 21.4761 108.697 21.0434C108.815 20.5911 108.874 20.1388 108.874 19.6668C108.874 19.2144 108.815 18.7621 108.697 18.3098C108.579 17.8574 108.402 17.4641 108.146 17.1101C107.89 16.7561 107.576 16.4808 107.202 16.2644C106.809 16.0481 106.356 15.9301 105.845 15.9301C105.334 15.9301 104.862 16.0481 104.488 16.2644C104.095 16.4808 103.8 16.7758 103.544 17.1101C103.288 17.4641 103.111 17.8574 102.993 18.3098C102.875 18.7621 102.816 19.2144 102.816 19.6668C102.816 20.1388 102.875 20.5911 102.993 21.0434C103.111 21.4958 103.288 21.8891 103.544 22.2431C103.8 22.5971 104.114 22.8921 104.488 23.1084C104.881 23.3444 105.334 23.4428 105.845 23.4428ZM111.942 14.3371H113.731V11.1118H116.091V14.3174H118.215V16.0678H116.091V21.7711C116.091 22.0268 116.111 22.2234 116.131 22.4201C116.15 22.5971 116.209 22.7544 116.268 22.8724C116.347 22.9904 116.465 23.0888 116.603 23.1478C116.76 23.2068 116.957 23.2461 117.232 23.2461C117.389 23.2461 117.566 23.2461 117.724 23.2264C117.881 23.2068 118.058 23.1871 118.215 23.1478V24.9768C117.96 25.0161 117.704 25.0358 117.448 25.0554C117.193 25.0948 116.957 25.0948 116.681 25.0948C116.052 25.0948 115.56 25.0358 115.187 24.9178C114.813 24.7998 114.518 24.6228 114.302 24.4064C114.085 24.1704 113.948 23.8951 113.869 23.5608C113.79 23.2264 113.751 22.8134 113.731 22.3808V16.0874H111.942V14.2978V14.3371Z" fill="black"/>
<path d="M28.4758 10.266H17.6788L14.3552 0L11.0118 10.266L0.214844 10.2463L8.94684 16.5987L5.60351 26.8647L14.3355 20.5123L23.0675 26.8647L19.7438 16.5987L28.4758 10.266Z" fill="#00B67A"/>
<path d="M20.4915 18.9193L19.7441 16.5986L14.3555 20.5123L20.4915 18.9193Z" fill="#005128"/>
<path d="M0.214844 66H21.1135V86.8987H0.214844V66ZM22.8551 66H43.7538V86.8987H22.8551V66ZM45.4953 66H66.394V86.8987H45.4953V66ZM68.1356 66H89.0342V86.8987H68.1356V66ZM90.7758 66H111.674V86.8987H90.7758V66Z" fill="#00B67A"/>
<rect x="100.528" y="66" width="11.146" height="20.9108" fill="#DBDDE4"/>
<path d="M10.6641 80.0848L13.8425 79.2793L15.1704 83.372L10.6641 80.0848ZM17.9787 74.7948H12.3839L10.6641 69.5266L8.94436 74.7948H3.34961L7.87766 78.0602L6.15787 83.3284L10.6859 80.063L13.4724 78.0602L17.9787 74.7948ZM33.3044 80.0848L36.4827 79.2793L37.8107 83.372L33.3044 80.0848ZM40.6189 74.7948H35.0242L33.3044 69.5266L31.5846 74.7948H25.9898L30.5179 78.0602L28.7981 83.3284L33.3262 80.063L36.1126 78.0602L40.6189 74.7948ZM55.9446 80.0848L59.123 79.2793L60.4509 83.372L55.9446 80.0848ZM63.2592 74.7948H57.6644L55.9446 69.5266L54.2248 74.7948H48.6301L53.1581 78.0602L51.4384 83.3284L55.9664 80.063L58.7529 78.0602L63.2592 74.7948ZM78.5849 80.0848L81.7632 79.2793L83.0912 83.372L78.5849 80.0848ZM85.8994 74.7948H80.3047L78.5849 69.5266L76.8651 74.7948H71.2703L75.7984 78.0602L74.0786 83.3284L78.6066 80.063L81.3931 78.0602L85.8994 74.7948ZM101.225 80.0848L104.403 79.2793L105.731 83.372L101.225 80.0848ZM108.54 74.7948H102.945L101.225 69.5266L99.5053 74.7948H93.9106L98.4386 78.0602L96.7188 83.3284L101.247 80.063L104.033 78.0602L108.54 74.7948Z" fill="white"/>
<path d="M122.49 79.9119V78.8977L126.965 71.8182H127.7V73.3892H127.203L123.823 78.7386V78.8182H129.848V79.9119H122.49ZM127.283 82V79.6037V79.1314V71.8182H128.456V82H127.283ZM133.003 80.608L132.923 81.1449C132.867 81.5227 132.781 81.9271 132.665 82.358C132.552 82.7888 132.434 83.1948 132.312 83.576C132.189 83.9571 132.088 84.2604 132.008 84.4858H131.113C131.156 84.2737 131.213 83.9936 131.282 83.6456C131.352 83.2976 131.422 82.9081 131.491 82.4773C131.564 82.0497 131.624 81.6122 131.67 81.1648L131.73 80.608H133.003ZM135.27 82L139.824 72.9915V72.9119H134.574V71.8182H141.096V72.9716L136.562 82H135.27Z" fill="black"/>
<path d="M153.731 78.7415V76.0449H152.383V76.7191H153.057V78.7415H152.046V79.4157H154.743V78.7415H153.731ZM153.394 74.0225C153.294 74.0225 153.196 74.0521 153.113 74.1077C153.03 74.1632 152.965 74.2422 152.927 74.3346C152.889 74.427 152.879 74.5286 152.898 74.6267C152.918 74.7248 152.966 74.8149 153.037 74.8856C153.107 74.9563 153.197 75.0045 153.296 75.024C153.394 75.0435 153.495 75.0335 153.588 74.9952C153.68 74.9569 153.759 74.8921 153.815 74.809C153.87 74.7258 153.9 74.6281 153.9 74.5281C153.9 74.394 153.847 74.2654 153.752 74.1706C153.657 74.0757 153.528 74.0225 153.394 74.0225Z" fill="black"/>
<path d="M153.394 81.4381C152.461 81.4381 151.548 81.1613 150.772 80.6428C149.996 80.1243 149.391 79.3873 149.034 78.525C148.677 77.6627 148.583 76.7138 148.765 75.7984C148.948 74.883 149.397 74.0422 150.057 73.3822C150.717 72.7222 151.558 72.2728 152.473 72.0907C153.389 71.9086 154.337 72.002 155.2 72.3592C156.062 72.7164 156.799 73.3212 157.318 74.0973C157.836 74.8733 158.113 75.7857 158.113 76.7191C158.113 77.9706 157.616 79.1709 156.731 80.0559C155.846 80.9409 154.645 81.4381 153.394 81.4381ZM153.394 72.6742C152.594 72.6742 151.812 72.9114 151.147 73.3558C150.481 73.8003 149.963 74.432 149.657 75.1711C149.351 75.9103 149.271 76.7235 149.427 77.5082C149.583 78.2928 149.968 79.0135 150.534 79.5792C151.099 80.1449 151.82 80.5302 152.605 80.6862C153.389 80.8423 154.203 80.7622 154.942 80.4561C155.681 80.1499 156.313 79.6315 156.757 78.9663C157.202 78.3011 157.439 77.5191 157.439 76.7191C157.439 75.6463 157.013 74.6174 156.254 73.8589C155.495 73.1003 154.467 72.6742 153.394 72.6742Z" fill="black"/>
</svg>
