<svg width="15" height="13" viewBox="0 0 15 13" fill="none" xmlns="http://www.w3.org/2000/svg">
<path d="M15 1.44016C14.4479 1.69219 13.8528 1.85781 13.2361 1.93702C13.8671 1.55538 14.3547 0.950507 14.5841 0.223225C13.989 0.583266 13.3294 0.835294 12.6338 0.979311C12.0674 0.360041 11.2715 0 10.3681 0C8.68308 0 7.30641 1.38256 7.30641 3.08915C7.30641 3.33398 7.33509 3.5716 7.38528 3.79483C4.8327 3.66521 2.55975 2.43387 1.04685 0.568864C0.781549 1.02252 0.630975 1.55538 0.630975 2.11704C0.630975 3.18996 1.16874 4.14047 2.00048 4.68053C1.4914 4.68053 1.01816 4.53651 0.602295 4.32049V4.34209C0.602295 5.83986 1.66348 7.0928 3.06883 7.37363C2.61763 7.49764 2.14395 7.51489 1.68499 7.42404C1.87974 8.03789 2.26114 8.57502 2.77559 8.95992C3.29003 9.34482 3.91165 9.55814 4.55306 9.56988C3.4658 10.4343 2.11807 10.9015 0.731358 10.8948C0.487572 10.8948 0.243786 10.8804 0 10.8516C1.36233 11.7301 2.98279 12.2414 4.71797 12.2414C10.3681 12.2414 13.4728 7.53205 13.4728 3.44919C13.4728 3.31237 13.4728 3.18276 13.4656 3.04594C14.0679 2.61389 14.5841 2.06663 15 1.44016Z" fill="#FFC706"/>
</svg>
